<svg xmlns="http://www.w3.org/2000/svg" width="200" height="200" viewBox="0 0 200 200" fill="none">
  <path d="M45 40H155C160.523 40 165 44.4772 165 50V150C165 155.523 160.523 160 155 160H45C39.4772 160 35 155.523 35 150V50C35 44.4772 39.4772 40 45 40Z" fill="#E6E6E6"/>
  <path d="M60 70H140M60 90H120M60 110H100" stroke="#A3A3A3" stroke-width="4" stroke-linecap="round"/>
  <path d="M150 60C150 62.7614 147.761 65 145 65C142.239 65 140 62.7614 140 60C140 57.2386 142.239 55 145 55C147.761 55 150 57.2386 150 60Z" fill="#FFA500"/>
  <path d="M75 130C75 127.239 77.2386 125 80 125H120C122.761 125 125 127.239 125 130C125 132.761 122.761 135 120 135H80C77.2386 135 75 132.761 75 130Z" fill="#A3A3A3"/>
</svg> 