<svg xmlns="http://www.w3.org/2000/svg" viewBox="0 0 24 24" width="24" height="24">
  <path d="M17.25 12.5c0 .69-.305 1.3-.89 1.83-.461.42-.97.69-1.525.8-.105.014-.359.014-.758 0-.399-.014-.698-.09-.9-.23a3.1 3.1 0 0 1-.765-.65 3.64 3.64 0 0 0-.484-.435c-.14-.1-.3-.149-.48-.149-.17 0-.325.05-.465.15a3.89 3.89 0 0 0-.494.435c-.33.33-.586.554-.766.65-.2.14-.494.215-.885.229-.39.014-.644.014-.764 0a2.84 2.84 0 0 1-1.516-.8c-.585-.53-.878-1.14-.878-1.83 0-.62.185-1.19.555-1.695.37-.51.88-.91 1.524-1.21.61-.28 1.275-.42 1.995-.42s1.385.14 1.995.42c.644.3 1.151.7 1.52 1.21.366.51.55 1.075.55 1.695zm-2.72-5.77c.38.425.57.89.57 1.39 0 .409-.115.77-.344 1.08-.229.315-.53.57-.899.76-.285.145-.689.275-1.21.385-.21.055-.655.129-1.334.229a1.01 1.01 0 0 0-.66.28c-.145.13-.219.285-.219.465 0 .229.1.415.296.55.19.14.42.21.69.21a1.68 1.68 0 0 0 .644-.13c.21-.085.39-.2.54-.344.13-.115.304-.31.525-.585.055-.075.119-.129.189-.159a.69.69 0 0 1 .256-.05c.114 0 .214.025.3.08.89.055.164.135.229.23.065.09.13.204.2.344.069.14.095.23.095.285 0 .09-.04.189-.13.3a2.93 2.93 0 0 1-.359.39c-.13.129-.27.25-.415.359-.135.1-.305.19-.515.265-.2.075-.395.12-.58.14-.18.02-.38.03-.6.03-.459 0-.874-.075-1.244-.229-.375-.155-.674-.37-.9-.65-.224-.284-.34-.614-.34-.989 0-.529.21-.964.63-1.305.42-.34.979-.61 1.684-.805l.72-.21c.39-.11.695-.2.91-.265.21-.65.394-.154.55-.28.114-.09.209-.19.279-.299.75-.11.115-.234.115-.375 0-.26-.12-.485-.36-.67-.24-.19-.555-.28-.944-.28-.26 0-.484.04-.67.119-.18.08-.329.18-.444.3a1.57 1.57 0 0 0-.27.374c-.065.13-.145.28-.245.45-.04.07-.11.14-.21.21-.1.064-.21.095-.335.095a.58.58 0 0 1-.364-.13c-.105-.085-.16-.215-.16-.39 0-.095.014-.185.04-.265.03-.085.08-.2.155-.344.15-.275.33-.5.535-.665.21-.17.455-.305.735-.405.28-.1.59-.149.93-.149.48 0 .899.075 1.254.225.35.145.619.34.804.575zm3.74-1.78c.62 1.04.93 2.24.93 3.6 0 .96-.15 1.85-.45 2.65-.3.8-.725 1.535-1.274 2.2-.514.62-1.064 1.13-1.65 1.53-.585.4-1.2.715-1.845.945-.64.23-1.304.345-1.995.345-.68 0-1.324-.11-1.934-.33-.61-.225-1.205-.535-1.785-.93a7.634 7.634 0 0 1-1.66-1.53c-.56-.68-.989-1.41-1.29-2.19-.3-.785-.45-1.68-.45-2.69 0-1.36.31-2.56.93-3.6a6.69 6.69 0 0 1 2.55-2.53c1.08-.62 2.29-.925 3.64-.925 1.35 0 2.56.305 3.64.93a6.8 6.8 0 0 1 2.55 2.525z" fill="#000" fill-rule="evenodd"/>
</svg> 