<svg xmlns="http://www.w3.org/2000/svg" width="24" height="24" viewBox="0 0 24 24">
  <path d="M12.545 12.11h2.373v-.59h-2.373v.59zm2.982 0h.59v-3.537h-.59v3.537zm-6.52 0v-1.473h1.917c-.148.59-.739 1.18-1.917 1.18V12.11zm0-3.242v.59h1.77c0-.295-.148-.59-.44-.59h-1.33zm6.223-.295v2.662h.59V8.573h-.59zM9.6 12.7c1.623 0 2.804-1.03 2.804-2.514 0-1.475-1.181-2.514-2.65-2.514H6.914v5.028H9.6zm6.965-3.242h-.59v.295h.59v-.295zm1.476.295h.59V8.868h-1.476v.295h.886v.59zm-.885.295v1.77h.59v-1.77h.59v-.295h-.59c-.296 0-.59.295-.59.295z" fill="#5F6368"/>
  <path d="M18.722 12.7H22v-5.028h-3.278v5.028zm-.737-5.028L14.61 12.7h3.132l.59-1.328h-2.058l1.77-3.7h-1.18-1.18z" fill="#EB4132"/>
  <path d="M6.914 12.7v-5.028H2v5.028h4.914z" fill="#249E57"/>
  <path d="M10.782 12.7h3.278V8.868h.886V7.672H9.6c-1.77 0-2.686 1.328-2.686 2.514 0 1.475 1.18 2.514 2.804 2.514h1.064z" fill="#FABD03"/>
</svg> 