<?xml version="1.0" encoding="UTF-8"?>
<svg width="200px" height="200px" viewBox="0 0 24 24" version="1.1" xmlns="http://www.w3.org/2000/svg" xmlns:xlink="http://www.w3.org/1999/xlink">
    <title>空箱子</title>
    <g stroke="none" stroke-width="1" fill="none" fill-rule="evenodd">
        <rect opacity="0" x="0" y="0" width="24" height="24"></rect>
        <path d="M4,7 L20,7 L20,19.5 C20,20.3284271 19.3284271,21 18.5,21 L5.5,21 C4.67157288,21 4,20.3284271 4,19.5 L4,7 Z" fill="#e2e8f0" fill-rule="nonzero"></path>
        <path d="M4,7 L20,7 L20,9 L4,9 L4,7 Z" fill="#a0aec0" fill-rule="nonzero"></path>
        <path d="M8,7 L16,7 L16,5 C16,4.44771525 15.5522847,4 15,4 L9,4 C8.44771525,4 8,4.44771525 8,5 L8,7 Z" fill="#a0aec0" fill-rule="nonzero"></path>
        <circle fill="#e2e8f0" cx="12" cy="14" r="4"></circle>
        <path d="M10,14 L14,14" stroke="#a0aec0" stroke-width="1.5" stroke-linecap="round"></path>
    </g>
</svg> 