<?xml version="1.0" encoding="UTF-8"?>
<svg width="200px" height="200px" viewBox="0 0 24 24" version="1.1" xmlns="http://www.w3.org/2000/svg" xmlns:xlink="http://www.w3.org/1999/xlink">
    <title>空提案</title>
    <g stroke="none" stroke-width="1" fill="none" fill-rule="evenodd">
        <rect opacity="0" x="0" y="0" width="24" height="24"></rect>
        <path d="M4,5 L20,5 L20,19 C20,20.1045695 19.1045695,21 18,21 L6,21 C4.8954305,21 4,20.1045695 4,19 L4,5 Z" fill="#e2e8f0" fill-rule="nonzero"></path>
        <path d="M7,9 L17,9" stroke="#a0aec0" stroke-width="1" stroke-linecap="round"></path>
        <path d="M7,12 L17,12" stroke="#a0aec0" stroke-width="1" stroke-linecap="round"></path>
        <path d="M7,15 L13,15" stroke="#a0aec0" stroke-width="1" stroke-linecap="round"></path>
        <path d="M4,5 L20,5 L20,7 L4,7 L4,5 Z" fill="#a0aec0" fill-rule="nonzero"></path>
        <circle fill="#e2e8f0" cx="19" cy="3" r="3"></circle>
        <path d="M18,3 L20,3" stroke="#a0aec0" stroke-width="1.5" stroke-linecap="round"></path>
        <path d="M19,2 L19,4" stroke="#a0aec0" stroke-width="1.5" stroke-linecap="round"></path>
    </g>
</svg> 